<?xml version="1.0" standalone="no"?>
<!DOCTYPE svg PUBLIC "-//W3C//DTD SVG 20010904//EN"
 "http://www.w3.org/TR/2001/REC-SVG-20010904/DTD/svg10.dtd">
<svg version="1.0" xmlns="http://www.w3.org/2000/svg"
 width="318.000000pt" height="159.000000pt" viewBox="0 0 318.000000 159.000000"
 preserveAspectRatio="xMidYMid meet">

<g transform="translate(0.000000,159.000000) scale(0.100000,-0.100000)"
fill="#000000" stroke="none">
<path d="M1050 1415 c-60 -17 -90 -34 -133 -74 -90 -83 -97 -228 -16 -316 l39
-42 -48 -10 c-67 -13 -86 -4 -102 50 -23 85 -72 112 -151 84 -26 -10 -64 -17
-85 -17 -55 -1 -120 -33 -144 -72 -44 -72 -18 -187 50 -226 24 -14 30 -24 30
-51 0 -46 61 -106 98 -96 14 3 70 6 125 6 68 0 108 4 127 14 42 22 73 6 88
-44 12 -37 11 -43 -12 -78 -77 -117 -40 -259 85 -328 49 -27 63 -30 144 -30
81 0 95 3 143 29 31 18 67 49 87 76 l34 47 54 -5 c40 -3 66 1 100 16 38 17 53
19 84 10 20 -5 63 -8 94 -6 56 4 56 4 68 -29 24 -65 96 -92 159 -59 15 8 46
35 70 60 24 25 48 46 54 46 5 0 24 10 40 22 30 20 32 21 77 4 54 -19 108 -21
162 -4 30 8 45 8 64 0 33 -15 155 1 205 27 19 10 46 33 58 52 22 31 23 40 17
119 -3 47 -10 104 -15 126 -9 40 -8 43 30 83 59 61 67 156 19 207 -23 25 -23
18 -16 236 2 39 -3 52 -27 77 -70 73 -183 53 -231 -40 -8 -14 -27 -32 -44 -38
-24 -11 -34 -10 -62 5 -34 18 -134 25 -208 14 -32 -5 -35 -3 -43 27 -10 39
-58 80 -101 88 -18 4 -50 0 -73 -9 -33 -11 -51 -12 -83 -4 -34 9 -45 7 -75
-10 -32 -19 -36 -19 -78 -4 -39 14 -49 14 -78 2 -50 -21 -97 -66 -110 -106
-11 -33 -14 -35 -52 -32 -38 3 -41 6 -59 52 -10 27 -33 64 -50 82 -66 68 -202
98 -309 69z m216 -84 c108 -49 127 -190 34 -243 -46 -27 -48 -34 -19 -91 34
-67 85 -123 134 -147 45 -22 47 -22 93 -5 26 10 65 18 87 19 36 1 40 -1 43
-26 5 -39 -12 -63 -61 -87 -54 -26 -128 -27 -182 -2 -80 36 -161 149 -204 284
-15 45 -31 49 -31 7 0 -19 7 -34 20 -42 11 -7 20 -20 20 -28 0 -25 -36 -76
-74 -105 -35 -26 -37 -27 -55 -11 -19 17 -19 18 0 59 16 36 18 56 12 137 -3
52 -12 108 -20 123 -20 39 -3 57 53 57 47 0 47 0 44 -62 -2 -37 -1 -38 36 -38
63 0 92 47 63 102 -13 24 -67 48 -108 48 -45 0 -108 -28 -126 -57 -16 -23 -15
-27 9 -74 32 -59 32 -75 5 -90 -18 -9 -26 -7 -48 8 -40 30 -52 62 -48 123 4
69 26 102 91 135 63 32 169 35 232 6z m789 -61 c9 -40 -10 -70 -43 -70 -35 0
-52 17 -52 50 0 43 23 61 67 52 14 -3 24 -14 28 -32z m-184 3 c6 -16 13 -80
16 -143 2 -63 9 -130 15 -147 8 -29 14 -33 43 -33 39 0 45 11 45 82 0 41 -3
51 -20 55 -23 6 -25 21 -7 44 17 22 66 53 74 46 9 -10 22 -88 23 -138 0 -31 7
-55 21 -73 32 -41 19 -56 -49 -56 -32 0 -63 5 -69 11 -8 8 -17 7 -34 -5 -27
-18 -139 -23 -139 -6 0 6 7 24 15 40 22 42 10 225 -17 259 -24 32 -24 34 19
64 47 34 51 33 64 0z m-170 -10 c6 -16 14 -88 18 -161 7 -121 10 -134 32 -158
24 -25 24 -26 5 -40 -26 -19 -122 -19 -129 0 -3 7 1 23 9 35 12 17 14 42 8
133 -6 96 -10 115 -28 130 l-21 18 39 35 c22 19 43 35 48 35 5 0 13 -12 19
-27z m966 1 c16 -25 16 -27 -3 -41 -11 -8 -29 -11 -43 -8 l-25 6 27 -33 c38
-46 48 -74 38 -101 -12 -31 -27 -41 -88 -61 -85 -28 -68 -46 34 -38 56 4 64 2
87 -21 35 -35 33 -62 -7 -102 -83 -83 -280 -64 -252 24 8 27 34 34 59 16 66
-48 66 -48 99 -38 25 7 32 14 32 33 0 24 -2 25 -80 28 -43 2 -85 8 -92 14 -20
16 -16 56 7 68 21 11 20 12 -5 42 -48 57 -17 117 71 139 40 10 43 14 38 36
-15 57 70 87 103 37z m-446 -95 c6 -12 14 -17 18 -12 10 16 48 33 74 33 35 0
58 -31 66 -92 4 -29 15 -65 25 -80 17 -26 17 -27 -16 -62 -18 -20 -44 -37 -58
-38 -25 -3 -25 -3 -21 73 4 90 -3 119 -29 119 -53 0 -67 -80 -24 -138 31 -39
23 -50 -36 -53 -85 -5 -101 7 -70 49 18 24 21 37 15 75 -5 32 -12 47 -25 50
-27 7 -12 52 25 77 38 25 42 25 56 -1z m-691 -44 c80 -41 81 -194 2 -237 -14
-7 -46 -12 -71 -11 -39 1 -51 7 -78 37 -29 31 -33 43 -33 88 0 109 89 170 180
123z m-812 -112 c-2 -22 2 -38 10 -41 6 -2 15 -20 18 -41 6 -35 7 -36 44 -33
38 4 39 3 45 -35 3 -21 10 -46 16 -56 17 -31 -39 -86 -63 -61 -4 3 -2 19 2 35
12 40 -3 81 -26 72 -11 -4 -14 -14 -11 -37 3 -17 7 -40 9 -51 2 -17 -3 -21
-36 -23 -36 -3 -38 -2 -31 20 10 34 5 137 -8 159 -9 14 -9 21 1 31 19 19 14
30 -10 26 -21 -3 -23 -9 -26 -72 -2 -39 2 -74 8 -80 5 -5 10 -17 10 -26 0 -20
-51 -70 -71 -70 -13 0 -14 7 -6 48 6 26 7 60 3 75 -6 24 -9 26 -27 16 -32 -17
-68 -2 -85 35 -14 29 -15 37 -3 62 19 38 53 54 119 54 30 0 66 7 80 15 37 21
42 19 38 -22z m270 -119 c16 -11 22 -24 20 -42 -2 -22 -10 -28 -46 -37 -24 -5
-41 -13 -37 -16 3 -4 23 -3 43 2 20 4 38 6 40 4 10 -9 -9 -36 -32 -46 -35 -16
-73 -3 -91 31 -20 38 -19 48 5 88 22 37 60 43 98 16z m279 -123 c27 -40 30
-86 6 -99 -12 -7 -27 -1 -61 25 -46 35 -86 39 -104 10 -21 -33 -7 -46 96 -86
111 -43 137 -71 151 -161 11 -74 -22 -133 -95 -170 -86 -44 -176 -33 -242 29
-35 32 -41 45 -45 87 -6 61 14 107 57 129 62 32 138 5 120 -42 -5 -13 -17 -23
-27 -23 -29 0 -63 -29 -63 -54 0 -61 91 -97 158 -62 38 20 52 44 52 90 0 52
-39 87 -138 126 -115 45 -144 88 -107 160 19 37 62 60 112 61 21 0 47 4 58 9
32 14 48 7 72 -29z m1363 -51 c11 -23 18 -45 15 -50 -9 -15 -49 -12 -71 5 -24
19 -54 19 -54 1 0 -8 21 -21 48 -30 47 -16 92 -48 92 -65 0 -68 -33 -94 -131
-105 -52 -5 -58 -4 -72 18 -9 13 -19 36 -23 50 -9 38 18 43 76 16 26 -12 53
-19 59 -16 24 15 8 33 -45 51 -70 24 -84 37 -84 79 0 54 35 72 157 85 7 0 22
-17 33 -39z m-249 -19 c21 -22 29 -39 29 -65 0 -43 -19 -55 -96 -63 -34 -4
-53 -10 -51 -17 4 -12 66 -13 115 -1 31 7 32 7 32 -24 0 -28 -5 -34 -45 -52
-56 -25 -93 -19 -140 23 -25 21 -36 40 -40 73 -14 93 32 154 118 155 41 0 53
-5 78 -29z m-273 -9 c83 -77 47 -242 -53 -242 -66 0 -88 55 -30 75 17 6 36 14
43 18 19 13 15 72 -7 91 -17 16 -23 16 -48 4 -27 -12 -28 -17 -31 -87 -2 -63
0 -79 18 -103 l21 -28 -21 -28 c-23 -32 -78 -67 -88 -58 -3 4 -7 66 -7 138 -2
123 -3 133 -23 146 -30 20 -27 37 11 66 35 27 62 33 72 17 3 -6 19 -4 38 4 48
21 72 18 105 -13z m-312 -11 c64 -39 73 -162 15 -213 -26 -23 -41 -28 -82 -28
-66 0 -87 12 -111 67 -23 51 -19 89 12 141 33 54 108 69 166 33z m-247 -6 c54
-27 51 -82 -3 -70 -66 16 -88 12 -99 -18 -12 -38 -1 -76 25 -86 13 -5 42 -3
70 4 43 12 48 11 53 -5 14 -43 -35 -80 -106 -80 -33 0 -47 6 -74 33 -106 106
5 289 134 222z"/>
<path d="M2512 1128 c-33 -33 11 -68 59 -48 33 14 33 14 19 41 -12 22 -59 26
-78 7z"/>
<path d="M1437 1062 c-19 -21 -22 -73 -7 -103 12 -22 59 -26 78 -7 7 7 12 31
12 54 0 33 -5 47 -22 58 -29 21 -41 20 -61 -2z"/>
<path d="M544 973 c-6 -5 -14 -18 -18 -30 -6 -20 -4 -23 18 -23 13 0 32 -3 41
-6 14 -6 16 -1 13 27 -4 34 -29 49 -54 32z"/>
<path d="M2260 651 c-16 -31 -13 -33 33 -26 54 9 61 14 46 31 -17 21 -66 18
-79 -5z"/>
<path d="M1698 629 c-13 -7 -18 -23 -18 -57 0 -53 12 -72 46 -72 38 0 57 28
51 77 -2 24 -6 46 -8 48 -11 10 -56 13 -71 4z"/>
</g>
</svg>
